<?xml version="1.0" ?><!DOCTYPE svg  PUBLIC '-//W3C//DTD SVG 1.1//EN'  'http://www.w3.org/Graphics/SVG/1.1/DTD/svg11.dtd'><svg enable-background="new 0 0 800 800" height="800px" id="Layer_1" version="1.1" viewBox="0 0 800 800" width="800px" xml:space="preserve" xmlns="http://www.w3.org/2000/svg" xmlns:xlink="http://www.w3.org/1999/xlink"><g><path d="M760.115,561.59H564.952c0.101-2.852,0.201-5.709,0.201-8.523c0-148.962-121.183-270.152-270.152-270.152   c-148.961,0-270.152,121.19-270.152,270.152c0,8.05,0.386,16.205,1.191,24.934c0.705,7.736,7.198,13.659,14.967,13.659H528.54   h20.454h211.121c8.299,0,15.035-6.732,15.035-15.034S768.414,561.59,760.115,561.59z M55.086,561.59   c-0.118-2.877-0.167-5.713-0.167-8.523c0-109.643,73.914-202.291,174.508-230.905c-45.842,46.689-76.348,135.324-76.968,239.429   H55.086z M182.527,561.59c0.848-126.296,51.078-233.35,112.474-243.782c61.414,10.433,111.643,117.486,112.491,243.782H182.527z    M534.925,561.59h-6.385h-90.979c-0.621-104.104-31.126-192.739-76.969-239.424c100.586,28.609,174.491,121.258,174.491,230.9   C535.084,555.881,535.034,558.717,534.925,561.59z" fill="#4D4D4D"/><path d="M274.329,238.41h41.345c8.306,0,15.035-6.732,15.035-15.034s-6.729-15.035-15.035-15.035h-41.345   c-8.298,0-15.035,6.733-15.035,15.035S266.031,238.41,274.329,238.41z" fill="#4D4D4D"/></g></svg>